<?xml version="1.0" encoding="utf-8"?>
<svg version="1.1" xmlns:xlink="http://www.w3.org/1999/xlink" width="34px" height="28px" xmlns="http://www.w3.org/2000/svg">
  <g transform="matrix(1 0 0 1 -1513 -52 )">
    <path d="M 9.2138671875 7.79736211031175  C 9.49055989583333 7.52318145483613  9.62890625 7.15667466027178  9.62890625 6.6978417266187  C 9.62890625 6.23900879296562  9.49055989583333 5.86970423661071  9.2138671875 5.58992805755396  C 8.93717447916667 5.3101518784972  8.57194010416667 5.17026378896882  8.1181640625 5.17026378896882  C 7.64225260416667 5.17026378896882  7.2216796875 5.31294964028777  6.8564453125 5.59832134292566  C 6.4912109375 5.88369304556355  6.30859375 6.25019984012789  6.30859375 6.6978417266187  C 6.30859375 7.13429256594724  6.4912109375 7.49520383693046  6.8564453125 7.78057553956835  C 7.2216796875 8.06594724220624  7.64225260416667 8.20863309352518  8.1181640625 8.20863309352518  C 8.57194010416667 8.20863309352518  8.93717447916667 8.07154276578737  9.2138671875 7.79736211031175  Z M 21.54052734375 16.0647482014388  C 21.82275390625 15.8185451638689  21.9638671875 15.533173461231  21.9638671875 15.2086330935252  C 21.9638671875 14.8952837729816  21.82275390625 14.6155075939249  21.54052734375 14.3693045563549  C 21.25830078125 14.123101518785  20.8958333333333 14  20.453125 14  C 20.154296875 14  19.88037109375 14.1258992805755  19.63134765625 14.3776978417266  C 19.38232421875 14.6294964028777  19.2578125 14.9064748201439  19.2578125 15.2086330935252  C 19.2578125 15.5219824140687  19.38232421875 15.8045563549161  19.63134765625 16.0563549160671  C 19.88037109375 16.3081534772182  20.154296875 16.4340527577938  20.453125 16.4340527577938  C 20.8958333333333 16.4340527577938  21.25830078125 16.3109512390088  21.54052734375 16.0647482014388  Z M 17.63916015625 7.79736211031175  C 17.9103190104167 7.52318145483613  18.0458984375 7.15667466027178  18.0458984375 6.6978417266187  C 18.0458984375 6.23900879296562  17.9103190104167 5.86970423661071  17.63916015625 5.58992805755396  C 17.3680013020833 5.3101518784972  17.0055338541667 5.17026378896882  16.5517578125 5.17026378896882  C 16.0758463541667 5.17026378896882  15.6552734375 5.31294964028777  15.2900390625 5.59832134292566  C 14.9248046875 5.88369304556355  14.7421875 6.25019984012789  14.7421875 6.6978417266187  C 14.7421875 7.13429256594724  14.9248046875 7.49520383693046  15.2900390625 7.78057553956835  C 15.6552734375 8.06594724220624  16.0758463541667 8.20863309352518  16.5517578125 8.20863309352518  C 17.0055338541667 8.20863309352518  17.3680013020833 8.07154276578737  17.63916015625 7.79736211031175  Z M 28.15625 16.0647482014388  C 28.4440104166667 15.8185451638689  28.587890625 15.533173461231  28.587890625 15.2086330935252  C 28.587890625 14.8952837729816  28.4440104166667 14.6155075939249  28.15625 14.3693045563549  C 27.8684895833333 14.123101518785  27.5087890625 14  27.0771484375 14  C 26.7783203125 14  26.50439453125 14.1258992805755  26.25537109375 14.3776978417266  C 26.00634765625 14.6294964028777  25.8818359375 14.9064748201439  25.8818359375 15.2086330935252  C 25.8818359375 15.5219824140687  26.00634765625 15.8045563549161  26.25537109375 16.0563549160671  C 26.50439453125 16.3081534772182  26.7783203125 16.4340527577938  27.0771484375 16.4340527577938  C 27.5087890625 16.4340527577938  27.8684895833333 16.3109512390088  28.15625 16.0647482014388  Z M 21.90576171875 4.17146282973621  C 23.0734049479167 5.47521982414069  23.8287760416667 6.93285371702638  24.171875 8.54436450839328  C 23.8287760416667 8.4996003197442  23.44140625 8.47721822541966  23.009765625 8.47721822541966  C 21.1393229166667 8.47721822541966  19.4182942708333 8.90807354116706  17.8466796875 9.76978417266187  C 16.2750651041667 10.6314948041567  15.0382486979167 11.7981614708233  14.13623046875 13.2697841726619  C 13.2342122395833 14.7414068745004  12.783203125 16.3501199040767  12.783203125 18.0959232613909  C 12.783203125 18.968824940048  12.9104817708333 19.8193445243805  13.1650390625 20.6474820143885  C 12.7776692708333 20.6810551558753  12.4013671875 20.6978417266187  12.0361328125 20.6978417266187  C 11.7483723958333 20.6978417266187  11.4716796875 20.689448441247  11.2060546875 20.6726618705036  C 10.9404296875 20.6558752997602  10.6360677083333 20.6195043964828  10.29296875 20.5635491606715  C 9.94986979166667 20.5075939248601  9.70361328125 20.4684252597922  9.55419921875 20.4460431654676  C 9.40478515625 20.4236610711431  9.10319010416667 20.3649080735412  8.6494140625 20.2697841726619  C 8.19563802083333 20.1746602717826  7.9189453125 20.1159072741807  7.8193359375 20.0935251798561  L 3.619140625 22.2254196642686  L 4.814453125 18.5659472422062  C 1.60481770833333 16.2941646682654  0 13.5523581135092  0 10.3405275779377  C 0 8.44924060751399  0.53955078125 6.70903277378097  1.61865234375 5.11990407673861  C 2.69775390625 3.53077537969624  4.15869140625 2.28017585931255  6.00146484375 1.36810551558753  C 7.84423828125 0.456035171862508  9.85579427083333 0  12.0361328125 0  C 13.9840494791667 0  15.8240559895833 0.369304556354917  17.55615234375 1.10791366906475  C 19.2882486979167 1.84652278177458  20.7381184895833 2.86770583533173  21.90576171875 4.17146282973621  Z M 32.58056640625 13.5383693045564  C 33.52685546875 14.8980815347722  34 16.3725019984013  34 17.9616306954436  C 34 19.2709832134293  33.6209309895833 20.5215827338129  32.86279296875 21.7134292565947  C 32.1046549479167 22.9052757793765  31.078125 23.9880095923261  29.783203125 24.9616306954436  L 30.6962890625 28  L 27.392578125 26.1702637889688  C 25.732421875 26.5843325339728  24.5260416666667 26.7913669064748  23.7734375 26.7913669064748  C 21.9029947916667 26.7913669064748  20.1819661458333 26.3968824940048  18.6103515625 25.6079136690647  C 17.0387369791667 24.8189448441247  15.8019205729167 23.7474020783373  14.89990234375 22.3932853717026  C 13.9978841145833 21.0391686650679  13.546875 19.5619504396483  13.546875 17.9616306954436  C 13.546875 16.361310951239  13.9978841145833 14.8840927258193  14.89990234375 13.5299760191847  C 15.8019205729167 12.17585931255  17.0387369791667 11.1043165467626  18.6103515625 10.3153477218225  C 20.1819661458333 9.52637889688249  21.9029947916667 9.13189448441247  23.7734375 9.13189448441247  C 25.5553385416667 9.13189448441247  27.2320963541667 9.52637889688249  28.8037109375 10.3153477218225  C 30.3753255208333 11.1043165467626  31.63427734375 12.1786570743405  32.58056640625 13.5383693045564  Z " fill-rule="nonzero" fill="#f2f2f2" stroke="none" transform="matrix(1 0 0 1 1513 52 )" />
  </g>
</svg>