<?xml version="1.0" encoding="utf-8"?>
<svg version="1.1" xmlns:xlink="http://www.w3.org/1999/xlink" width="27px" height="28px" xmlns="http://www.w3.org/2000/svg">
  <g transform="matrix(1 0 0 1 -1460 -52 )">
    <path d="M 0 19.875  C 0 17.0104166666667  1.29157175398633 14.5833333333333  3.874715261959 12.59375  C 3.79271070615034 12.3958333333333  3.75170842824601 12.125  3.75170842824601 11.78125  C 3.75170842824601 11.5729166666667  3.80808656036447 11.3177083333333  3.92084282460137 11.015625  C 4.03359908883827 10.7135416666667  4.15660592255125 10.4791666666667  4.28986332574032 10.3125  C 4.27961275626424 10.0833333333333  4.31805239179955 9.80729166666667  4.40518223234624 9.484375  C 4.49231207289294 9.16145833333333  4.60763097949886 8.9375  4.75113895216401 8.8125  C 4.75113895216401 7.36458333333333  5.2252277904328 5.86197916666666  6.17340546697039 4.3046875  C 7.12158314350797 2.74739583333333  8.23633257403189 1.65625  9.51765375854214 1.03125  C 10.9424829157175 0.34375  12.6030751708428 0  14.499430523918 0  C 15.8627562642369 0  17.2260820045558 0.286458333333337  18.5894077448747 0.859375  C 19.0916856492027 1.078125  19.5529612756264 1.328125  19.9732346241458 1.609375  C 20.3935079726651 1.890625  20.7574031890661 2.18229166666666  21.0649202733485 2.484375  C 21.372437357631 2.78645833333333  21.6543280182232 3.140625  21.9105922551253 3.546875  C 22.1668564920273 3.953125  22.3821184510251 4.33854166666667  22.5563781321185 4.703125  C 22.7306378132118 5.06770833333333  22.8972095671982 5.5078125  23.0560933940775 6.0234375  C 23.2149772209567 6.5390625  23.3456719817768 7.00520833333333  23.4481776765376 7.421875  C 23.5506833712984 7.83854166666667  23.6634396355353 8.34895833333333  23.7864464692483 8.953125  L 23.8018223234624 9.03125  C 24.3656036446469 9.89583333333333  24.6474943052392 10.6770833333333  24.6474943052392 11.375  C 24.6474943052392 11.5208333333333  24.6013667425968 11.7291666666667  24.5091116173121 12  C 24.4168564920273 12.2708333333333  24.370728929385 12.46875  24.370728929385 12.59375  C 24.370728929385 12.6041666666667  24.378416856492 12.6223958333333  24.3937927107062 12.6484375  C 24.4091685649203 12.6744791666667  24.4271070615034 12.7005208333333  24.4476082004556 12.7265625  C 24.4681093394077 12.7526041666667  24.4783599088838 12.7708333333333  24.4783599088838 12.78125  C 25.2676537585421 13.96875  25.8852505694761 15.0859375  26.3311503416857 16.1328125  C 26.7770501138952 17.1796875  27 18.265625  27 19.390625  C 27 19.8385416666667  26.9000569476082 20.359375  26.7001708428246 20.953125  C 26.500284738041 21.546875  26.2158314350797 21.84375  25.8468109339408 21.84375  C 25.754555808656 21.84375  25.6546127562642 21.8046875  25.5469817767654 21.7265625  C 25.4393507972665 21.6484375  25.3419703872437 21.5572916666667  25.254840546697 21.453125  C 25.1677107061503 21.3489583333333  25.0703302961276 21.2135416666667  24.9626993166287 21.046875  C 24.8550683371298 20.8802083333333  24.7730637813212 20.7421875  24.7166856492027 20.6328125  C 24.6603075170843 20.5234375  24.5911161731207 20.3880208333333  24.5091116173121 20.2265625  C 24.4271070615034 20.0651041666667  24.3809794988611 19.9739583333333  24.370728929385 19.953125  C 24.3604783599089 19.9427083333333  24.3451025056948 19.9375  24.3246013667426 19.9375  L 24.247722095672 20  C 23.6429384965831 21.6041666666667  22.9664009111617 22.765625  22.2181093394077 23.484375  C 22.4231207289294 23.6927083333333  22.7383257403189 23.8932291666667  23.1637243735763 24.0859375  C 23.5891230068337 24.2786458333333  23.9427676537585 24.4947916666667  24.2246583143508 24.734375  C 24.5065489749431 24.9739583333333  24.6884965831435 25.3125  24.7705011389522 25.75  C 24.75 25.7916666666667  24.7294988610478 25.875  24.7089977220957 26  C 24.6884965831435 26.125  24.6526195899772 26.21875  24.6013667425968 26.28125  C 23.9453302961276 27.2916666666667  22.3974943052392 27.796875  19.9578587699317 27.796875  C 19.4145785876993 27.796875  18.8482346241458 27.75  18.2588268792711 27.65625  C 17.6694191343964 27.5625  17.1671412300683 27.4583333333333  16.751993166287 27.34375  C 16.3368451025057 27.2291666666667  15.8012528473804 27.0729166666667  15.1452164009112 26.875  C 14.9914578587699 26.8229166666667  14.873576309795 26.7864583333333  14.7915717539863 26.765625  C 14.6480637813212 26.7239583333333  14.4123006833713 26.7005208333333  14.0842824601367 26.6953125  C 13.756264236902 26.6901041666667  13.5512528473804 26.6822916666667  13.4692482915718 26.671875  C 13.0489749430524 27.140625  12.3955011389522 27.4791666666667  11.5088268792711 27.6875  C 10.62215261959 27.8958333333333  9.75854214123007 28  8.91799544419134 28  C 8.55922551252847 28  8.20558086560365 27.9921875  7.85706150341686 27.9765625  C 7.50854214123007 27.9609375  7.03189066059226 27.9140625  6.42710706150342 27.8359375  C 5.82232346241458 27.7578125  5.30466970387244 27.6510416666667  4.87414578587699 27.515625  C 4.44362186788155 27.3802083333333  4.06178815489749 27.171875  3.72864464692483 26.890625  C 3.39550113895216 26.609375  3.22892938496583 26.2760416666667  3.22892938496583 25.890625  C 3.22892938496583 25.4739583333333  3.28018223234624 25.1640625  3.38268792710706 24.9609375  C 3.48519362186788 24.7578125  3.69533029612756 24.5052083333333  4.0130979498861 24.203125  C 4.12585421412301 24.1822916666667  4.33342824601367 24.1145833333333  4.63582004555809 24  C 4.93821184510251 23.8854166666667  5.19191343963554 23.8229166666667  5.39692482915718 23.8125  C 5.4379271070615 23.8125  5.50968109339408 23.8020833333333  5.6121867881549 23.78125  C 5.63268792710706 23.7604166666667  5.64293849658314 23.7395833333333  5.64293849658314 23.71875  L 5.6121867881549 23.671875  C 5.12015945330296 23.5572916666667  4.56662870159453 23.0078125  3.95159453302961 22.0234375  C 3.33656036446469 21.0390625  2.9624145785877 20.2239583333333  2.82915717539863 19.578125  L 2.75227790432802 19.53125  C 2.71127562642369 19.53125  2.6497722095672 19.6354166666667  2.56776765375854 19.84375  C 2.38325740318907 20.2708333333333  2.10392938496583 20.6588541666667  1.72978359908884 21.0078125  C 1.35563781321185 21.3567708333333  0.958428246013668 21.5520833333333  0.538154897494305 21.59375  L 0.522779043280182 21.59375  C 0.481776765375854 21.59375  0.451025056947608 21.5703125  0.430523917995444 21.5234375  C 0.41002277904328 21.4765625  0.384396355353075 21.4479166666667  0.353644646924829 21.4375  C 0.117881548974943 20.875  0 20.3541666666667  0 19.875  Z " fill-rule="nonzero" fill="#f2f2f2" stroke="none" transform="matrix(1 0 0 1 1460 52 )" />
  </g>
</svg>