<?xml version="1.0" encoding="utf-8"?>
<svg version="1.1" xmlns:xlink="http://www.w3.org/1999/xlink" width="26px" height="25px" xmlns="http://www.w3.org/2000/svg">
  <g transform="matrix(1 0 0 1 -39 -130 )">
    <path d="M 0 5.35714285714286  L 13 0  L 26 5.35714285714286  L 26 7.14285714285714  L 24.2666666666667 7.14285714285714  C 24.2666666666667 7.38467261904762  24.1741319444444 7.59393601190476  23.9890625 7.77064732142857  C 23.8039930555556 7.94735863095238  23.5850694444444 8.03571428571428  23.3322916666667 8  L 2.66770833333333 8  C 2.41493055555556 8.03571428571428  2.19600694444444 7.94735863095238  2.0109375 7.77064732142857  C 1.82586805555556 7.59393601190476  1.73333333333333 7.38467261904762  1.73333333333333 7.14285714285714  L 0 7.14285714285714  L 0 5.35714285714286  Z M 3.46666666666667 19.6428571428571  L 3.46666666666667 8.92857142857143  L 7 8.92857142857143  L 7 19.6428571428571  L 9 19.6428571428571  L 9 8.92857142857143  L 12.1333333333333 8.92857142857143  L 12.1333333333333 19.6428571428571  L 13.8666666666667 19.6428571428571  L 13.8666666666667 8.92857142857143  L 17 8.92857142857143  L 17 19.6428571428571  L 19 19.6428571428571  L 19 8.92857142857143  L 22.5333333333333 8.92857142857143  L 22.5333333333333 19.6428571428571  L 23.3322916666667 19.6428571428571  C 23.5850694444444 19.6428571428571  23.8039930555556 19.731212797619  23.9890625 19.9079241071429  C 24.1741319444444 20.0846354166667  24.2666666666667 20.2938988095238  24.2666666666667 20.5357142857143  L 24.2666666666667 21  L 1.73333333333333 21  L 1.73333333333333 20.5357142857143  C 1.73333333333333 20.2938988095238  1.82586805555556 20.0846354166667  2.0109375 19.9079241071429  C 2.19600694444444 19.731212797619  2.41493055555556 19.6428571428571  2.66770833333333 19.6428571428571  L 3.46666666666667 19.6428571428571  Z M 0.934375 22  L 25.065625 22  C 25.3184027777778 22.3214285714286  25.5373263888889 22.4097842261905  25.7223958333333 22.5864955357143  C 25.9074652777778 22.7632068452381  26 22.9724702380952  26 23.2142857142857  L 26 25  L 0 25  L 0 23.2142857142857  C 0 22.9724702380952  0.0925347222222222 22.7632068452381  0.277604166666667 22.5864955357143  C 0.462673611111111 22.4097842261905  0.681597222222222 22.3214285714286  0.934375 22  Z " fill-rule="nonzero" fill="#ffffff" stroke="none" transform="matrix(1 0 0 1 39 130 )" />
  </g>
</svg>