<?xml version="1.0" encoding="utf-8"?>
<svg version="1.1" xmlns:xlink="http://www.w3.org/1999/xlink" width="26px" height="28px" xmlns="http://www.w3.org/2000/svg">
  <g transform="matrix(1 0 0 1 -39 -192 )">
    <path d="M 19.9818181818182 14  L 24.8181818181818 16.8072916666667  C 25.3757575757576 17.1232638888889  25.7363636363636 17.5941840277778  25.9 18.2200520833333  C 26.0636363636364 18.8459201388889  25.9878787878788 19.4383680555556  25.6727272727273 19.9973958333333  L 24.5090909090909 22.0026041666667  C 24.1939393939394 22.5616319444444  23.7242424242424 22.9231770833333  23.1 23.0872395833333  C 22.4757575757576 23.2513020833333  21.8848484848485 23.1753472222222  21.3272727272727 22.859375  L 16.4909090909091 20.0703125  L 16.4909090909091 25.6666666666667  C 16.4909090909091 26.2986111111111  16.2606060606061 26.8454861111111  15.8 27.3072916666667  C 15.3393939393939 27.7690972222222  14.7939393939394 28  14.1636363636364 28  L 11.8363636363636 28  C 11.2060606060606 28  10.6606060606061 27.7690972222222  10.2 27.3072916666667  C 9.73939393939394 26.8454861111111  9.50909090909091 26.2986111111111  9.50909090909091 25.6666666666667  L 9.50909090909091 20.0703125  L 4.67272727272727 22.859375  C 4.11515151515152 23.1753472222222  3.52424242424242 23.2513020833333  2.9 23.0872395833333  C 2.27575757575758 22.9231770833333  1.80606060606061 22.5616319444444  1.49090909090909 22.0026041666667  L 0.327272727272727 19.9973958333333  C 0.0121212121212122 19.4383680555556  -0.0636363636363636 18.8459201388889  0.1 18.2200520833333  C 0.263636363636364 17.5941840277778  0.624242424242424 17.1232638888889  1.18181818181818 16.8072916666667  L 6.01818181818182 14  L 1.18181818181818 11.1927083333333  C 0.624242424242424 10.8767361111111  0.263636363636364 10.4058159722222  0.1 9.77994791666667  C -0.0636363636363636 9.15407986111111  0.0121212121212122 8.56163194444444  0.327272727272727 8.00260416666667  L 1.49090909090909 5.99739583333333  C 1.80606060606061 5.43836805555555  2.27575757575758 5.07682291666667  2.9 4.91276041666667  C 3.52424242424242 4.74869791666667  4.11515151515152 4.82465277777778  4.67272727272727 5.140625  L 9.50909090909091 7.9296875  L 9.50909090909091 2.33333333333333  C 9.50909090909091 1.70138888888889  9.73939393939394 1.15451388888889  10.2 0.692708333333334  C 10.6606060606061 0.230902777777775  11.2060606060606 0  11.8363636363636 0  L 14.1636363636364 0  C 14.7939393939394 0  15.3393939393939 0.230902777777775  15.8 0.692708333333334  C 16.2606060606061 1.15451388888889  16.4909090909091 1.70138888888889  16.4909090909091 2.33333333333333  L 16.4909090909091 7.9296875  L 21.3272727272727 5.140625  C 21.8848484848485 4.82465277777778  22.4757575757576 4.74869791666667  23.1 4.91276041666667  C 23.7242424242424 5.07682291666667  24.1939393939394 5.43836805555555  24.5090909090909 5.99739583333333  L 25.6727272727273 8.00260416666667  C 25.9878787878788 8.56163194444444  26.0636363636364 9.15407986111111  25.9 9.77994791666667  C 25.7363636363636 10.4058159722222  25.3757575757576 10.8767361111111  24.8181818181818 11.1927083333333  L 19.9818181818182 14  Z " fill-rule="nonzero" fill="#ffffff" stroke="none" transform="matrix(1 0 0 1 39 192 )" />
  </g>
</svg>