<?xml version="1.0" encoding="utf-8"?>
<svg version="1.1" xmlns:xlink="http://www.w3.org/1999/xlink" width="14px" height="17px" xmlns="http://www.w3.org/2000/svg">
  <g transform="matrix(1 0 0 1 -459 -143 )">
    <path d="M 3.72372159090909 12.2329799107143  C 3.78669507575758 12.2930617559524  3.81818181818182 12.3642113095238  3.81818181818182 12.4464285714286  L 3.81818181818182 13.0535714285714  C 3.81818181818182 13.1357886904762  3.78669507575758 13.2069382440476  3.72372159090909 13.2670200892857  C 3.66074810606061 13.3271019345238  3.58617424242424 13.3571428571429  3.5 13.3571428571429  L 2.86363636363636 13.3571428571429  C 2.77746212121212 13.3571428571429  2.70288825757576 13.3271019345238  2.63991477272727 13.2670200892857  C 2.57694128787879 13.2069382440476  2.54545454545455 13.1357886904762  2.54545454545455 13.0535714285714  L 2.54545454545455 12.4464285714286  C 2.54545454545455 12.3642113095238  2.57694128787879 12.2930617559524  2.63991477272727 12.2329799107143  C 2.70288825757576 12.1728980654762  2.77746212121212 12.1428571428571  2.86363636363636 12.1428571428571  L 3.5 12.1428571428571  C 3.58617424242424 12.1428571428571  3.66074810606061 12.1728980654762  3.72372159090909 12.2329799107143  Z M 3.72372159090909 9.80440848214286  C 3.78669507575758 9.86449032738095  3.81818181818182 9.93563988095238  3.81818181818182 10.0178571428571  L 3.81818181818182 10.625  C 3.81818181818182 10.7072172619048  3.78669507575758 10.7783668154762  3.72372159090909 10.8384486607143  C 3.66074810606061 10.8985305059524  3.58617424242424 10.9285714285714  3.5 10.9285714285714  L 2.86363636363636 10.9285714285714  C 2.77746212121212 10.9285714285714  2.70288825757576 10.8985305059524  2.63991477272727 10.8384486607143  C 2.57694128787879 10.7783668154762  2.54545454545455 10.7072172619048  2.54545454545455 10.625  L 2.54545454545455 10.0178571428571  C 2.54545454545455 9.93563988095238  2.57694128787879 9.86449032738095  2.63991477272727 9.80440848214286  C 2.70288825757576 9.74432663690476  2.77746212121212 9.71428571428571  2.86363636363636 9.71428571428571  L 3.5 9.71428571428571  C 3.58617424242424 9.71428571428571  3.66074810606061 9.74432663690476  3.72372159090909 9.80440848214286  Z M 6.26917613636364 9.80440848214286  C 6.33214962121212 9.86449032738095  6.36363636363636 9.93563988095238  6.36363636363636 10.0178571428571  L 6.36363636363636 10.625  C 6.36363636363636 10.7072172619048  6.33214962121212 10.7783668154762  6.26917613636364 10.8384486607143  C 6.20620265151515 10.8985305059524  6.13162878787879 10.9285714285714  6.04545454545455 10.9285714285714  L 5.40909090909091 10.9285714285714  C 5.32291666666667 10.9285714285714  5.2483428030303 10.8985305059524  5.18536931818182 10.8384486607143  C 5.12239583333333 10.7783668154762  5.09090909090909 10.7072172619048  5.09090909090909 10.625  L 5.09090909090909 10.0178571428571  C 5.09090909090909 9.93563988095238  5.12239583333333 9.86449032738095  5.18536931818182 9.80440848214286  C 5.2483428030303 9.74432663690476  5.32291666666667 9.71428571428571  5.40909090909091 9.71428571428571  L 6.04545454545455 9.71428571428571  C 6.13162878787879 9.71428571428571  6.20620265151515 9.74432663690476  6.26917613636364 9.80440848214286  Z M 3.72372159090909 7.37583705357143  C 3.78669507575758 7.43591889880952  3.81818181818182 7.50706845238095  3.81818181818182 7.58928571428571  L 3.81818181818182 8.19642857142857  C 3.81818181818182 8.27864583333333  3.78669507575758 8.34979538690476  3.72372159090909 8.40987723214286  C 3.66074810606061 8.46995907738095  3.58617424242424 8.5  3.5 8.5  L 2.86363636363636 8.5  C 2.77746212121212 8.5  2.70288825757576 8.46995907738095  2.63991477272727 8.40987723214286  C 2.57694128787879 8.34979538690476  2.54545454545455 8.27864583333333  2.54545454545455 8.19642857142857  L 2.54545454545455 7.58928571428571  C 2.54545454545455 7.50706845238095  2.57694128787879 7.43591889880952  2.63991477272727 7.37583705357143  C 2.70288825757576 7.31575520833333  2.77746212121212 7.28571428571429  2.86363636363636 7.28571428571429  L 3.5 7.28571428571429  C 3.58617424242424 7.28571428571429  3.66074810606061 7.31575520833333  3.72372159090909 7.37583705357143  Z M 11.3600852272727 12.2329799107143  C 11.4230587121212 12.2930617559524  11.4545454545455 12.3642113095238  11.4545454545455 12.4464285714286  L 11.4545454545455 13.0535714285714  C 11.4545454545455 13.1357886904762  11.4230587121212 13.2069382440476  11.3600852272727 13.2670200892857  C 11.2971117424242 13.3271019345238  11.2225378787879 13.3571428571429  11.1363636363636 13.3571428571429  L 10.5 13.3571428571429  C 10.4138257575758 13.3571428571429  10.3392518939394 13.3271019345238  10.2762784090909 13.2670200892857  C 10.2133049242424 13.2069382440476  10.1818181818182 13.1357886904762  10.1818181818182 13.0535714285714  L 10.1818181818182 12.4464285714286  C 10.1818181818182 12.3642113095238  10.2133049242424 12.2930617559524  10.2762784090909 12.2329799107143  C 10.3392518939394 12.1728980654762  10.4138257575758 12.1428571428571  10.5 12.1428571428571  L 11.1363636363636 12.1428571428571  C 11.2225378787879 12.1428571428571  11.2971117424242 12.1728980654762  11.3600852272727 12.2329799107143  Z M 8.81463068181818 9.80440848214286  C 8.87760416666667 9.86449032738095  8.90909090909091 9.93563988095238  8.90909090909091 10.0178571428571  L 8.90909090909091 10.625  C 8.90909090909091 10.7072172619048  8.87760416666667 10.7783668154762  8.81463068181818 10.8384486607143  C 8.7516571969697 10.8985305059524  8.67708333333333 10.9285714285714  8.59090909090909 10.9285714285714  L 7.95454545454546 10.9285714285714  C 7.86837121212121 10.9285714285714  7.79379734848485 10.8985305059524  7.73082386363636 10.8384486607143  C 7.66785037878788 10.7783668154762  7.63636363636364 10.7072172619048  7.63636363636364 10.625  L 7.63636363636364 10.0178571428571  C 7.63636363636364 9.93563988095238  7.66785037878788 9.86449032738095  7.73082386363636 9.80440848214286  C 7.79379734848485 9.74432663690476  7.86837121212121 9.71428571428571  7.95454545454546 9.71428571428571  L 8.59090909090909 9.71428571428571  C 8.67708333333333 9.71428571428571  8.7516571969697 9.74432663690476  8.81463068181818 9.80440848214286  Z M 6.26917613636364 7.37583705357143  C 6.33214962121212 7.43591889880952  6.36363636363636 7.50706845238095  6.36363636363636 7.58928571428571  L 6.36363636363636 8.19642857142857  C 6.36363636363636 8.27864583333333  6.33214962121212 8.34979538690476  6.26917613636364 8.40987723214286  C 6.20620265151515 8.46995907738095  6.13162878787879 8.5  6.04545454545455 8.5  L 5.40909090909091 8.5  C 5.32291666666667 8.5  5.2483428030303 8.46995907738095  5.18536931818182 8.40987723214286  C 5.12239583333333 8.34979538690476  5.09090909090909 8.27864583333333  5.09090909090909 8.19642857142857  L 5.09090909090909 7.58928571428571  C 5.09090909090909 7.50706845238095  5.12239583333333 7.43591889880952  5.18536931818182 7.37583705357143  C 5.2483428030303 7.31575520833333  5.32291666666667 7.28571428571429  5.40909090909091 7.28571428571429  L 6.04545454545455 7.28571428571429  C 6.13162878787879 7.28571428571429  6.20620265151515 7.31575520833333  6.26917613636364 7.37583705357143  Z M 3.72372159090909 4.947265625  C 3.78669507575758 5.00734747023809  3.81818181818182 5.07849702380952  3.81818181818182 5.16071428571429  L 3.81818181818182 5.76785714285714  C 3.81818181818182 5.8500744047619  3.78669507575758 5.92122395833333  3.72372159090909 5.98130580357143  C 3.66074810606061 6.04138764880952  3.58617424242424 6.07142857142857  3.5 6.07142857142857  L 2.86363636363636 6.07142857142857  C 2.77746212121212 6.07142857142857  2.70288825757576 6.04138764880952  2.63991477272727 5.98130580357143  C 2.57694128787879 5.92122395833333  2.54545454545455 5.8500744047619  2.54545454545455 5.76785714285714  L 2.54545454545455 5.16071428571429  C 2.54545454545455 5.07849702380952  2.57694128787879 5.00734747023809  2.63991477272727 4.947265625  C 2.70288825757576 4.8871837797619  2.77746212121212 4.85714285714286  2.86363636363636 4.85714285714286  L 3.5 4.85714285714286  C 3.58617424242424 4.85714285714286  3.66074810606061 4.8871837797619  3.72372159090909 4.947265625  Z M 11.3600852272727 9.80440848214286  C 11.4230587121212 9.86449032738095  11.4545454545455 9.93563988095238  11.4545454545455 10.0178571428571  L 11.4545454545455 10.625  C 11.4545454545455 10.7072172619048  11.4230587121212 10.7783668154762  11.3600852272727 10.8384486607143  C 11.2971117424242 10.8985305059524  11.2225378787879 10.9285714285714  11.1363636363636 10.9285714285714  L 10.5 10.9285714285714  C 10.4138257575758 10.9285714285714  10.3392518939394 10.8985305059524  10.2762784090909 10.8384486607143  C 10.2133049242424 10.7783668154762  10.1818181818182 10.7072172619048  10.1818181818182 10.625  L 10.1818181818182 10.0178571428571  C 10.1818181818182 9.93563988095238  10.2133049242424 9.86449032738095  10.2762784090909 9.80440848214286  C 10.3392518939394 9.74432663690476  10.4138257575758 9.71428571428571  10.5 9.71428571428571  L 11.1363636363636 9.71428571428571  C 11.2225378787879 9.71428571428571  11.2971117424242 9.74432663690476  11.3600852272727 9.80440848214286  Z M 8.81463068181818 7.37583705357143  C 8.87760416666667 7.43591889880952  8.90909090909091 7.50706845238095  8.90909090909091 7.58928571428571  L 8.90909090909091 8.19642857142857  C 8.90909090909091 8.27864583333333  8.87760416666667 8.34979538690476  8.81463068181818 8.40987723214286  C 8.7516571969697 8.46995907738095  8.67708333333333 8.5  8.59090909090909 8.5  L 7.95454545454546 8.5  C 7.86837121212121 8.5  7.79379734848485 8.46995907738095  7.73082386363636 8.40987723214286  C 7.66785037878788 8.34979538690476  7.63636363636364 8.27864583333333  7.63636363636364 8.19642857142857  L 7.63636363636364 7.58928571428571  C 7.63636363636364 7.50706845238095  7.66785037878788 7.43591889880952  7.73082386363636 7.37583705357143  C 7.79379734848485 7.31575520833333  7.86837121212121 7.28571428571429  7.95454545454546 7.28571428571429  L 8.59090909090909 7.28571428571429  C 8.67708333333333 7.28571428571429  8.7516571969697 7.31575520833333  8.81463068181818 7.37583705357143  Z M 6.26917613636364 4.947265625  C 6.33214962121212 5.00734747023809  6.36363636363636 5.07849702380952  6.36363636363636 5.16071428571429  L 6.36363636363636 5.76785714285714  C 6.36363636363636 5.8500744047619  6.33214962121212 5.92122395833333  6.26917613636364 5.98130580357143  C 6.20620265151515 6.04138764880952  6.13162878787879 6.07142857142857  6.04545454545455 6.07142857142857  L 5.40909090909091 6.07142857142857  C 5.32291666666667 6.07142857142857  5.2483428030303 6.04138764880952  5.18536931818182 5.98130580357143  C 5.12239583333333 5.92122395833333  5.09090909090909 5.8500744047619  5.09090909090909 5.76785714285714  L 5.09090909090909 5.16071428571429  C 5.09090909090909 5.07849702380952  5.12239583333333 5.00734747023809  5.18536931818182 4.947265625  C 5.2483428030303 4.8871837797619  5.32291666666667 4.85714285714286  5.40909090909091 4.85714285714286  L 6.04545454545455 4.85714285714286  C 6.13162878787879 4.85714285714286  6.20620265151515 4.8871837797619  6.26917613636364 4.947265625  Z M 3.72372159090909 2.51869419642857  C 3.78669507575758 2.57877604166667  3.81818181818182 2.64992559523809  3.81818181818182 2.73214285714286  L 3.81818181818182 3.33928571428571  C 3.81818181818182 3.42150297619047  3.78669507575758 3.4926525297619  3.72372159090909 3.552734375  C 3.66074810606061 3.61281622023809  3.58617424242424 3.64285714285714  3.5 3.64285714285714  L 2.86363636363636 3.64285714285714  C 2.77746212121212 3.64285714285714  2.70288825757576 3.61281622023809  2.63991477272727 3.552734375  C 2.57694128787879 3.4926525297619  2.54545454545455 3.42150297619047  2.54545454545455 3.33928571428571  L 2.54545454545455 2.73214285714286  C 2.54545454545455 2.64992559523809  2.57694128787879 2.57877604166667  2.63991477272727 2.51869419642857  C 2.70288825757576 2.45861235119047  2.77746212121212 2.42857142857143  2.86363636363636 2.42857142857143  L 3.5 2.42857142857143  C 3.58617424242424 2.42857142857143  3.66074810606061 2.45861235119047  3.72372159090909 2.51869419642857  Z M 11.3600852272727 7.37583705357143  C 11.4230587121212 7.43591889880952  11.4545454545455 7.50706845238095  11.4545454545455 7.58928571428571  L 11.4545454545455 8.19642857142857  C 11.4545454545455 8.27864583333333  11.4230587121212 8.34979538690476  11.3600852272727 8.40987723214286  C 11.2971117424242 8.46995907738095  11.2225378787879 8.5  11.1363636363636 8.5  L 10.5 8.5  C 10.4138257575758 8.5  10.3392518939394 8.46995907738095  10.2762784090909 8.40987723214286  C 10.2133049242424 8.34979538690476  10.1818181818182 8.27864583333333  10.1818181818182 8.19642857142857  L 10.1818181818182 7.58928571428571  C 10.1818181818182 7.50706845238095  10.2133049242424 7.43591889880952  10.2762784090909 7.37583705357143  C 10.3392518939394 7.31575520833333  10.4138257575758 7.28571428571429  10.5 7.28571428571429  L 11.1363636363636 7.28571428571429  C 11.2225378787879 7.28571428571429  11.2971117424242 7.31575520833333  11.3600852272727 7.37583705357143  Z M 8.81463068181818 4.947265625  C 8.87760416666667 5.00734747023809  8.90909090909091 5.07849702380952  8.90909090909091 5.16071428571429  L 8.90909090909091 5.76785714285714  C 8.90909090909091 5.8500744047619  8.87760416666667 5.92122395833333  8.81463068181818 5.98130580357143  C 8.7516571969697 6.04138764880952  8.67708333333333 6.07142857142857  8.59090909090909 6.07142857142857  L 7.95454545454546 6.07142857142857  C 7.86837121212121 6.07142857142857  7.79379734848485 6.04138764880952  7.73082386363636 5.98130580357143  C 7.66785037878788 5.92122395833333  7.63636363636364 5.8500744047619  7.63636363636364 5.76785714285714  L 7.63636363636364 5.16071428571429  C 7.63636363636364 5.07849702380952  7.66785037878788 5.00734747023809  7.73082386363636 4.947265625  C 7.79379734848485 4.8871837797619  7.86837121212121 4.85714285714286  7.95454545454546 4.85714285714286  L 8.59090909090909 4.85714285714286  C 8.67708333333333 4.85714285714286  8.7516571969697 4.8871837797619  8.81463068181818 4.947265625  Z M 6.26917613636364 2.51869419642857  C 6.33214962121212 2.57877604166667  6.36363636363636 2.64992559523809  6.36363636363636 2.73214285714286  L 6.36363636363636 3.33928571428571  C 6.36363636363636 3.42150297619047  6.33214962121212 3.4926525297619  6.26917613636364 3.552734375  C 6.20620265151515 3.61281622023809  6.13162878787879 3.64285714285714  6.04545454545455 3.64285714285714  L 5.40909090909091 3.64285714285714  C 5.32291666666667 3.64285714285714  5.2483428030303 3.61281622023809  5.18536931818182 3.552734375  C 5.12239583333333 3.4926525297619  5.09090909090909 3.42150297619047  5.09090909090909 3.33928571428571  L 5.09090909090909 2.73214285714286  C 5.09090909090909 2.64992559523809  5.12239583333333 2.57877604166667  5.18536931818182 2.51869419642857  C 5.2483428030303 2.45861235119047  5.32291666666667 2.42857142857143  5.40909090909091 2.42857142857143  L 6.04545454545455 2.42857142857143  C 6.13162878787879 2.42857142857143  6.20620265151515 2.45861235119047  6.26917613636364 2.51869419642857  Z M 11.3600852272727 4.947265625  C 11.4230587121212 5.00734747023809  11.4545454545455 5.07849702380952  11.4545454545455 5.16071428571429  L 11.4545454545455 5.76785714285714  C 11.4545454545455 5.8500744047619  11.4230587121212 5.92122395833333  11.3600852272727 5.98130580357143  C 11.2971117424242 6.04138764880952  11.2225378787879 6.07142857142857  11.1363636363636 6.07142857142857  L 10.5 6.07142857142857  C 10.4138257575758 6.07142857142857  10.3392518939394 6.04138764880952  10.2762784090909 5.98130580357143  C 10.2133049242424 5.92122395833333  10.1818181818182 5.8500744047619  10.1818181818182 5.76785714285714  L 10.1818181818182 5.16071428571429  C 10.1818181818182 5.07849702380952  10.2133049242424 5.00734747023809  10.2762784090909 4.947265625  C 10.3392518939394 4.8871837797619  10.4138257575758 4.85714285714286  10.5 4.85714285714286  L 11.1363636363636 4.85714285714286  C 11.2225378787879 4.85714285714286  11.2971117424242 4.8871837797619  11.3600852272727 4.947265625  Z M 8.81463068181818 2.51869419642857  C 8.87760416666667 2.57877604166667  8.90909090909091 2.64992559523809  8.90909090909091 2.73214285714286  L 8.90909090909091 3.33928571428571  C 8.90909090909091 3.42150297619047  8.87760416666667 3.4926525297619  8.81463068181818 3.552734375  C 8.7516571969697 3.61281622023809  8.67708333333333 3.64285714285714  8.59090909090909 3.64285714285714  L 7.95454545454546 3.64285714285714  C 7.86837121212121 3.64285714285714  7.79379734848485 3.61281622023809  7.73082386363636 3.552734375  C 7.66785037878788 3.4926525297619  7.63636363636364 3.42150297619047  7.63636363636364 3.33928571428571  L 7.63636363636364 2.73214285714286  C 7.63636363636364 2.64992559523809  7.66785037878788 2.57877604166667  7.73082386363636 2.51869419642857  C 7.79379734848485 2.45861235119047  7.86837121212121 2.42857142857143  7.95454545454546 2.42857142857143  L 8.59090909090909 2.42857142857143  C 8.67708333333333 2.42857142857143  8.7516571969697 2.45861235119047  8.81463068181818 2.51869419642857  Z M 11.3600852272727 2.51869419642857  C 11.4230587121212 2.57877604166667  11.4545454545455 2.64992559523809  11.4545454545455 2.73214285714286  L 11.4545454545455 3.33928571428571  C 11.4545454545455 3.42150297619047  11.4230587121212 3.4926525297619  11.3600852272727 3.552734375  C 11.2971117424242 3.61281622023809  11.2225378787879 3.64285714285714  11.1363636363636 3.64285714285714  L 10.5 3.64285714285714  C 10.4138257575758 3.64285714285714  10.3392518939394 3.61281622023809  10.2762784090909 3.552734375  C 10.2133049242424 3.4926525297619  10.1818181818182 3.42150297619047  10.1818181818182 3.33928571428571  L 10.1818181818182 2.73214285714286  C 10.1818181818182 2.64992559523809  10.2133049242424 2.57877604166667  10.2762784090909 2.51869419642857  C 10.3392518939394 2.45861235119047  10.4138257575758 2.42857142857143  10.5 2.42857142857143  L 11.1363636363636 2.42857142857143  C 11.2225378787879 2.42857142857143  11.2971117424242 2.45861235119047  11.3600852272727 2.51869419642857  Z M 8.90909090909091 13.6607142857143  L 8.90909090909091 15.7857142857143  L 12.7272727272727 15.7857142857143  L 12.7272727272727 1.21428571428571  L 1.27272727272727 1.21428571428571  L 1.27272727272727 15.7857142857143  L 5.09090909090909 15.7857142857143  L 5.09090909090909 13.6607142857143  C 5.09090909090909 13.5784970238095  5.12239583333333 13.5073474702381  5.18536931818182 13.447265625  C 5.2483428030303 13.3871837797619  5.32291666666667 13.3571428571429  5.40909090909091 13.3571428571429  L 8.59090909090909 13.3571428571429  C 8.67708333333333 13.3571428571429  8.7516571969697 13.3871837797619  8.81463068181818 13.447265625  C 8.87760416666667 13.5073474702381  8.90909090909091 13.5784970238095  8.90909090909091 13.6607142857143  Z M 13.8110795454545 0.180245535714286  C 13.9370265151515 0.300409226190474  14 0.442708333333333  14 0.607142857142857  L 14 16.3928571428571  C 14 16.5572916666667  13.9370265151515 16.6995907738095  13.8110795454545 16.8197544642857  C 13.6851325757576 16.9399181547619  13.5359848484848 17  13.3636363636364 17  L 0.636363636363636 17  C 0.464015151515152 17  0.314867424242424 16.9399181547619  0.188920454545455 16.8197544642857  C 0.0629734848484848 16.6995907738095  0 16.5572916666667  0 16.3928571428571  L 0 0.607142857142857  C 0 0.442708333333333  0.0629734848484848 0.300409226190474  0.188920454545455 0.180245535714286  C 0.314867424242424 0.0600818452380967  0.464015151515152 0  0.636363636363636 0  L 13.3636363636364 0  C 13.5359848484848 0  13.6851325757576 0.0600818452380967  13.8110795454545 0.180245535714286  Z " fill-rule="nonzero" fill="#999999" stroke="none" transform="matrix(1 0 0 1 459 143 )" />
  </g>
</svg>