<?xml version="1.0" encoding="utf-8"?>
<svg version="1.1" xmlns:xlink="http://www.w3.org/1999/xlink" width="12px" height="12px" viewBox="553 398.5  12 12" xmlns="http://www.w3.org/2000/svg">
  <path d="M 559 398.5  C 562.36 398.5  565 401.14  565 404.5  C 565 407.86  562.36 410.5  559 410.5  C 555.64 410.5  553 407.86  553 404.5  C 553 401.14  555.64 398.5  559 398.5  Z " fill-rule="nonzero" fill="#ffffff" stroke="none" />
  <path d="M 559 399  C 562.08 399  564.5 401.42  564.5 404.5  C 564.5 407.58  562.08 410  559 410  C 555.92 410  553.5 407.58  553.5 404.5  C 553.5 401.42  555.92 399  559 399  Z " stroke-width="1" stroke="#797979" fill="none" />
  <path d="M 559 407.5  C 557.32 407.5  556 406.18  556 404.5  C 556 402.82  557.32 401.5  559 401.5  C 560.68 401.5  562 402.82  562 404.5  C 562 406.18  560.68 407.5  559 407.5  " fill-rule="nonzero" fill="#797979" stroke="none" />
</svg>