<?xml version="1.0" encoding="utf-8"?>
<svg version="1.1" xmlns:xlink="http://www.w3.org/1999/xlink" width="120px" height="120px" xmlns="http://www.w3.org/2000/svg">
  <g transform="matrix(1 0 0 1 -520 -144 )">
    <path d="M 92.96875 50  C 92.96875 51.3541666666666  92.4739583333334 52.5260416666666  91.484375 53.515625  L 58.515625 86.484375  C 57.5260416666666 87.4739583333333  56.3541666666666 87.96875  55 87.96875  C 53.6458333333334 87.96875  52.4739583333334 87.4739583333333  51.484375 86.484375  L 28.515625 63.515625  C 27.5260416666667 62.5260416666666  27.03125 61.3541666666666  27.03125 60  C 27.03125 58.6458333333333  27.5260416666667 57.4739583333333  28.515625 56.484375  L 36.484375 48.515625  C 37.4739583333334 47.5260416666667  38.6458333333334 47.03125  40 47.03125  C 41.3541666666666 47.03125  42.5260416666666 47.5260416666667  43.515625 48.515625  L 55 60  L 76.484375 38.515625  C 77.4739583333334 37.5260416666666  78.6458333333334 37.03125  80 37.03125  C 81.3541666666666 37.03125  82.5260416666666 37.5260416666666  83.515625 38.515625  L 91.484375 46.484375  C 92.4739583333334 47.4739583333333  92.96875 48.6458333333333  92.96875 50  Z M 96.796875 81.328125  C 100.598958333333 74.8177083333333  102.5 67.7083333333334  102.5 60  C 102.5 52.2916666666666  100.598958333333 45.1822916666667  96.796875 38.671875  C 92.9947916666667 32.1614583333333  87.8385416666667 27.0052083333333  81.328125 23.203125  C 74.8177083333334 19.4010416666667  67.7083333333334 17.5  60 17.5  C 52.2916666666666 17.5  45.1822916666666 19.4010416666667  38.671875 23.203125  C 32.1614583333333 27.0052083333333  27.0052083333333 32.1614583333333  23.203125 38.671875  C 19.4010416666667 45.1822916666667  17.5 52.2916666666666  17.5 60  C 17.5 67.7083333333334  19.4010416666667 74.8177083333333  23.203125 81.328125  C 27.0052083333333 87.8385416666667  32.1614583333333 92.9947916666666  38.671875 96.796875  C 45.1822916666666 100.598958333333  52.2916666666666 102.5  60 102.5  C 67.7083333333334 102.5  74.8177083333334 100.598958333333  81.328125 96.796875  C 87.8385416666667 92.9947916666666  92.9947916666667 87.8385416666667  96.796875 81.328125  Z M 111.953125 29.8828125  C 117.317708333333 39.0755208333333  120 49.1145833333333  120 60  C 120 70.8854166666667  117.317708333333 80.9244791666667  111.953125 90.1171875  C 106.588541666667 99.3098958333334  99.3098958333334 106.588541666667  90.1171875 111.953125  C 80.9244791666667 117.317708333333  70.8854166666666 120  60 120  C 49.1145833333334 120  39.0755208333334 117.317708333333  29.8828125 111.953125  C 20.6901041666667 106.588541666667  13.4114583333333 99.3098958333334  8.046875 90.1171875  C 2.68229166666669 80.9244791666667  0 70.8854166666667  0 60  C 0 49.1145833333333  2.68229166666669 39.0755208333333  8.046875 29.8828125  C 13.4114583333333 20.6901041666667  20.6901041666667 13.4114583333333  29.8828125 8.046875  C 39.0755208333334 2.68229166666663  49.1145833333334 0  60 0  C 70.8854166666666 0  80.9244791666667 2.68229166666663  90.1171875 8.046875  C 99.3098958333334 13.4114583333333  106.588541666667 20.6901041666667  111.953125 29.8828125  Z " fill-rule="nonzero" fill="#2ecc71" stroke="none" transform="matrix(1 0 0 1 520 144 )" />
  </g>
</svg>